<svg width="38" height="40" fill="none" xmlns="http://www.w3.org/2000/svg"><path d="M18.997 20.58v4.166m0 0H6.33v4.167m12.667-4.167h12.666v4.167m-12.666-4.167v4.167m0 0h-4.5v9h9v-9h-4.5Zm8 0h9.166v9h-9.166v-9Zm-25.167 0h9v9h-9v-9ZM19.201 2.08h-.403a1.834 1.834 0 0 0-1.834 1.833v.165a1.833 1.833 0 0 1-.917 1.586l-.394.23a1.834 1.834 0 0 1-1.833 0l-.138-.074a1.833 1.833 0 0 0-2.503.67l-.201.348a1.833 1.833 0 0 0 .669 2.502l.137.092a1.833 1.833 0 0 1 .917 1.577v.467a1.833 1.833 0 0 1-.917 1.595l-.137.083a1.833 1.833 0 0 0-.67 2.503l.202.348a1.834 1.834 0 0 0 2.503.67l.138-.074a1.834 1.834 0 0 1 1.833 0l.394.23a1.834 1.834 0 0 1 .917 1.585v.165a1.834 1.834 0 0 0 1.834 1.834h.403a1.834 1.834 0 0 0 1.834-1.834v-.165a1.833 1.833 0 0 1 .916-1.586l.394-.23a1.834 1.834 0 0 1 1.834 0l.137.074a1.833 1.833 0 0 0 2.503-.669l.202-.357a1.834 1.834 0 0 0-.67-2.503l-.137-.074a1.833 1.833 0 0 1-.917-1.595v-.458a1.833 1.833 0 0 1 .917-1.595l.138-.083a1.834 1.834 0 0 0 .669-2.502l-.202-.349a1.834 1.834 0 0 0-2.503-.67l-.137.074a1.833 1.833 0 0 1-1.834 0l-.394-.229a1.834 1.834 0 0 1-.916-1.586v-.165A1.834 1.834 0 0 0 19.2 2.08Zm2.549 9.167a2.75 2.75 0 1 1-5.5 0 2.75 2.75 0 0 1 5.5 0Z" stroke="#fff" stroke-width="3" stroke-linecap="round" stroke-linejoin="round"/></svg>