<svg width="21" height="20" fill="none" xmlns="http://www.w3.org/2000/svg"><path d="M8 15v-1a1 1 0 0 0-1 1h1Zm5 0h1a1 1 0 0 0-1-1v1ZM7.167 4a1 1 0 1 0 0 2V4Zm.008 2a1 1 0 1 0 0-2v2Zm6.659-2a1 1 0 1 0 0 2V4Zm.008 2a1 1 0 1 0 0-2v2ZM10.5 4a1 1 0 1 0 0 2V4Zm.008 2a1 1 0 1 0 0-2v2ZM10.5 7.333a1 1 0 1 0 0 2v-2Zm.008 2a1 1 0 1 0 0-2v2Zm-.008 1.333a1 1 0 1 0 0 2v-2Zm.008 2a1 1 0 1 0 0-2v2Zm3.326-5.333a1 1 0 1 0 0 2v-2Zm.008 2a1 1 0 1 0 0-2v2Zm-.008 1.333a1 1 0 1 0 0 2v-2Zm.008 2a1 1 0 1 0 0-2v2ZM7.167 7.333a1 1 0 1 0 0 2v-2Zm.008 2a1 1 0 1 0 0-2v2Zm-.008 1.333a1 1 0 1 0 0 2v-2Zm.008 2a1 1 0 1 0 0-2v2Zm-1.675-10h10v-2h-10v2Zm10 0c.368 0 .667.299.667.667h2A2.667 2.667 0 0 0 15.5.667v2Zm.667.667v13.334h2V3.332h-2Zm0 13.334a.667.667 0 0 1-.667.666v2a2.667 2.667 0 0 0 2.667-2.666h-2Zm-.667.666h-10v2h10v-2Zm-10 0a.667.667 0 0 1-.667-.666h-2A2.667 2.667 0 0 0 5.5 19.332v-2Zm-.667-.666V3.332h-2v13.333h2Zm0-13.334c0-.368.299-.667.667-.667v-2a2.667 2.667 0 0 0-2.667 2.667h2Zm4.167 15V15H7v3.333h2ZM8 16h5v-2H8v2Zm4-1v3.333h2V15h-2ZM7.167 6h.008V4h-.008v2Zm6.667 0h.008V4h-.008v2ZM10.5 6h.008V4H10.5v2Zm0 3.333h.008v-2H10.5v2Zm0 3.333h.008v-2H10.5v2Zm3.334-3.333h.008v-2h-.008v2Zm0 3.333h.008v-2h-.008v2ZM7.167 9.333h.008v-2h-.008v2Zm0 3.333h.008v-2h-.008v2Z" fill="#fff"/></svg>