<svg width="240" height="60" fill="none" xmlns="http://www.w3.org/2000/svg"><path d="M66.61 25.231c1.376 0 2.907.048 4.236.945.885.587 1.927 1.748 1.927 3.818 0 2.274-1.436 4.955-5.422 4.955h-3.35v6.235h-2.933V25.23h5.541Zm.119 7.384c.646 0 1.58.024 2.322-.67.514-.467.79-1.257.79-1.927 0-.622-.252-1.376-.766-1.819-.515-.443-1.329-.658-2.238-.658H64v5.074h2.729Zm8.748-2.082c.814-.766 2.023-1.437 3.83-1.437 1.82 0 3.028.67 3.842 1.437 1.208 1.137 1.83 2.908 1.83 4.715s-.622 3.578-1.83 4.715c-.814.766-2.023 1.448-3.842 1.448-1.807 0-3.016-.682-3.83-1.448-1.208-1.137-1.83-2.908-1.83-4.715-.013-1.82.622-3.578 1.83-4.715Zm1.975 8.066c.251.299.838.861 1.855.861 1.03 0 1.604-.55 1.855-.861.191-.204.886-1.137.886-3.351s-.695-3.136-.886-3.351a2.366 2.366 0 0 0-1.855-.862 2.33 2.33 0 0 0-1.855.862c-.18.215-.885 1.137-.885 3.351 0 2.202.706 3.135.885 3.35Zm16.802-4.93c-.047-.6-.275-1.305-.586-1.748-.287-.419-.838-.886-1.771-.886-.91 0-1.508.467-1.88 1.09-.586.957-.621 2.44-.621 3.123 0 1.089.155 2.394.622 3.135.299.467.91 1.066 1.879 1.066.694 0 1.28-.276 1.723-.886.347-.49.587-1.185.623-1.795l2.465.299c-.144 1.089-.623 2.31-1.484 3.088-.718.646-1.843 1.232-3.423 1.232-1.76 0-2.908-.694-3.578-1.328-.91-.862-1.771-2.394-1.771-4.811 0-2.25.765-3.602 1.376-4.32.861-1.03 2.322-1.855 4.045-1.855 1.472 0 2.68.514 3.435 1.304.765.766 1.232 1.927 1.4 2.968l-2.454.323Zm11.537 0c-.048-.6-.275-1.305-.586-1.748-.275-.419-.838-.886-1.771-.886-.91 0-1.508.467-1.879 1.09-.575.957-.623 2.44-.623 3.123 0 1.089.168 2.394.623 3.135.299.467.909 1.066 1.879 1.066.694 0 1.28-.276 1.723-.886.347-.49.586-1.185.622-1.795l2.466.299c-.132 1.089-.623 2.31-1.484 3.088-.718.646-1.831 1.232-3.411 1.232-1.771 0-2.908-.694-3.578-1.328-.91-.862-1.772-2.394-1.772-4.811 0-2.25.766-3.602 1.377-4.32.861-1.03 2.321-1.855 4.045-1.855 1.46 0 2.668.514 3.434 1.304.766.766 1.233 1.927 1.401 2.968l-2.466.323Zm14.9 4.068a4.984 4.984 0 0 1-1.951 2.693c-.933.622-2.142.981-3.423.981-1.603 0-3.231-.682-4.212-1.675-.91-.922-1.58-2.537-1.58-4.44 0-2.418 1.005-4.021 2.095-4.93.634-.54 1.819-1.281 3.602-1.281 2.262 0 3.698 1.04 4.464 2.118.813 1.113 1.196 2.669 1.196 4.021v.539h-8.413c0 .131-.024 1.208.395 2.07.623 1.304 1.771 1.627 2.561 1.627.623 0 1.412-.191 2.071-.861.395-.42.562-.814.622-1.185l2.573.323Zm-2.741-3.746c0-.67-.167-1.436-.514-1.95a2.566 2.566 0 0 0-2.095-1.09c-.885 0-1.651.443-2.118.994a3.32 3.32 0 0 0-.694 2.046h5.421Zm14.409-4.667v11.86h-2.704v-9.85h-3.065c-.07 1.604-.118 2.25-.166 3.351-.072 1.233-.156 3.83-1.209 5.254a3.355 3.355 0 0 1-1.819 1.209c-.3.096-.623.131-.958.131-.228 0-.466-.023-.694-.095v-2.047h.228a2.236 2.236 0 0 0 1.112-.442c.934-.742 1.018-2.418 1.114-3.746.12-1.747.144-2.789.154-4.368l.024-1.257h7.983Zm5.541 4.224h2.98c.766 0 2.25.096 3.232 1.066.885.861.969 2.07.969 2.716 0 1.7-.695 2.561-1.233 3.004-.191.144-1.065.838-2.74.838h-5.9V29.324h2.692v4.224Zm0 5.673h2.118c.515 0 1.066-.024 1.533-.419.275-.263.609-.694.609-1.448 0-.646-.19-1.16-.717-1.508-.467-.299-1.054-.347-1.413-.347h-2.118v3.722h-.012Zm11.106-9.897 2.19 3.686 2.274-3.686h2.465l-3.47 5.361 4.117 6.487h-3.16l-2.692-4.464-2.837 4.464h-2.465l4.045-6.151-3.626-5.697h3.159Zm9.658 1.209c.814-.766 2.023-1.437 3.829-1.437 1.819 0 3.029.67 3.843 1.437 1.208 1.137 1.831 2.908 1.831 4.715s-.635 3.578-1.831 4.715c-.814.766-2.024 1.448-3.843 1.448-1.806 0-3.015-.682-3.829-1.448-1.208-1.137-1.831-2.908-1.831-4.715 0-1.82.623-3.578 1.831-4.715Zm1.975 8.066c.251.299.838.861 1.854.861 1.03 0 1.605-.55 1.867-.861.18-.204.886-1.137.886-3.351s-.694-3.136-.886-3.351a2.37 2.37 0 0 0-1.867-.862 2.33 2.33 0 0 0-1.854.862c-.192.215-.885 1.137-.885 3.351 0 2.202.705 3.135.885 3.35Zm8.975-6.068a4.166 4.166 0 0 1 1.903-2.62c.395-.252 1.485-.815 3.351-.815 1.161 0 2.346.204 3.231.695 1.305.718 1.627 1.759 1.627 2.513 0 .814-.394 2.37-2.416 2.597v.048c.693.095 1.46.395 1.927.885.419.443.741 1.185.741 1.975 0 1.185-.694 2.226-1.58 2.812-1.064.694-2.537.79-3.625.79-1.102 0-2.765-.12-3.937-1.041-.647-.514-1.258-1.4-1.437-2.513l2.441-.419c.096.371.3.933.575 1.257.611.706 1.555.765 2.166.765s1.256-.071 1.771-.418c.467-.324.695-.766.695-1.353 0-.49-.096-.885-.515-1.232-.539-.443-1.256-.515-1.927-.515h-1.233v-1.819h1.233c.467 0 1.136-.096 1.508-.275.491-.252.766-.67.766-1.353 0-.37-.144-.73-.491-1.005-.539-.443-1.304-.467-1.699-.467-.539 0-1.329.072-1.975.623a2.26 2.26 0 0 0-.766 1.364l-2.334-.479Zm24.163-4.511h-7.695v3.53h3.422c1.234 0 2.418.096 3.626.933 1.186.814 1.928 2.023 1.928 3.77 0 1.628-.611 2.837-1.377 3.602-1.16 1.161-2.489 1.329-3.877 1.329h-7.444V25.23h11.417v2.788Zm-7.695 10.363h3.003c.563 0 1.078-.024 1.605-.562.514-.515.585-1.09.585-1.532 0-.503-.143-1.017-.585-1.46-.527-.526-1.21-.586-1.7-.586h-2.908v4.14Zm10.891-5.768a4.28 4.28 0 0 1 2.046-2.788c.921-.539 2.154-.742 3.698-.742 1.95 0 3.925.25 4.811 2.094.467.957.419 1.975.419 2.86v4.584c0 .957.131 1.843.347 2.56h-3.375a10.24 10.24 0 0 1-.18-1.878c-.443.79-1.52 2.118-3.973 2.118-1.09 0-2.214-.275-2.98-.91-.742-.61-1.209-1.58-1.209-2.644 0-1.185.515-2.61 2.538-3.447 1.304-.538 3.422-.718 4.368-.766l1.112-.048v-.251c0-.323-.024-1.017-.347-1.4-.442-.515-1.328-.539-1.675-.539-.479 0-1.065.048-1.556.347-.299.18-.694.563-.838 1.21l-3.206-.36Zm6.582 2.956c-1.162.096-2.322.215-2.981 1.017a1.71 1.71 0 0 0-.371 1.065c0 .515.252.862.515 1.042.323.25.814.37 1.28.37.695 0 1.509-.299 1.976-.861.072-.072.621-.766.621-2.118v-.623l-1.04.108Zm10.543-6.247v4.44h3.745v-4.44h3.46v11.848h-3.46v-4.979h-3.745v4.979h-3.458V29.324h3.458Zm13.368 0v4.56h.934c1.004 0 1.423-.491 1.675-1.03.491-1.04.467-1.855.909-2.668.347-.647.814-.814 1.113-.862h2.861a5.854 5.854 0 0 0-.91 1.28c-.371.766-.718 2.023-.934 2.562-.274.742-.741 1.484-1.927 1.58v.047c.635.096 1.282.419 1.771 1.137.3.443.503 1.017.839 1.927.323.933.466 1.256.766 1.974.239.539.371.862.765 1.353h-3.255c-.514-.168-.862-.515-1.281-1.724-.322-.921-.37-1.256-.585-1.77l-.168-.42c-.347-.885-.814-1.065-1.533-1.065h-1.04v4.979h-3.458v-11.86h3.458ZM29.187 58.8C15.077 58.8 3.6 47.335 3.6 33.225c0-8.102 3.722-15.557 10.209-20.44l.263-.216V1.2h14.684v6.45h.43c14.099 0 25.575 11.478 25.575 25.587 0 14.098-11.477 25.563-25.574 25.563Z" fill="#19502E"/><path d="m21.779 33.632 5.325-5.23v-3.554l-5.325 5.206v3.578Zm0-13.248 5.325-5.242v-3.35l-5.325 5.205v3.387Zm0 4.38 5.325-5.23v-3.35l-5.325 5.205v3.375Zm-1.52-12.937-.706-.682V2.851h-.814v7.504l-.694-.694v-6.81h-.814v6.032l-.706-.694V2.851h-.802v7.911l5.338 5.23V2.852h-.802v8.975Zm1.52 17.317 5.325-5.23v-3.35l-5.325 5.205v3.375Zm-6.056-.742 5.338 5.23v-3.578l-5.338-5.206v3.554ZM26.303 8.19l-.707.694V2.851h-.802v6.822l-.706.682V2.851h-.801v8.282l-.706.694V2.851h-.802v13.14l5.325-5.229v-7.91h-.802v5.337Zm-10.58 6.953 5.338 5.242v-3.387l-5.338-5.206v3.351Zm0 4.392 5.338 5.23V21.39l-5.338-5.206v3.351Zm0 4.38 5.338 5.23V25.77l-5.338-5.205v3.35Zm31.75 2.765h-12.96c.275-.43.43-.934.43-1.472a2.794 2.794 0 0 0-2.8-2.789 2.791 2.791 0 0 0-2.789 2.789c0 .61.192 1.16.527 1.616a.892.892 0 0 0 0 1.496 2.803 2.803 0 0 0-.527 1.615 2.784 2.784 0 0 0 2.789 2.789c1.544 0 2.8-1.245 2.8-2.789 0-.538-.155-1.053-.43-1.472h9.645v.587h-.957v.825h.957v.85h-.957v1.568h.957v-.706h1.412v.706h.946v-1.568h-.946v-.85h.946v-.825h-.946v-.587h1.903a.68.68 0 0 0 .67-.682v-.419a.687.687 0 0 0-.67-.682Zm-13.882 3.255a1.443 1.443 0 0 1-2.884 0c0-.287.083-.562.239-.79l.395-.682a1.177 1.177 0 0 1-.407-.898c0-.358.156-.682.407-.897l-.395-.682a1.37 1.37 0 0 1-.24-.79c0-.79.647-1.436 1.437-1.436s1.448.646 1.448 1.436c0 .586-.682 1.987-.682 1.987v.754c0 .012.682 1.412.682 1.998Z" fill="#FFCB05"/><path d="M10.876 24.98v3.482c0 3.327 1.448 5.47 2.286 6.295.49.479 5.445 5.361 5.517 5.421 1.544 1.508 1.807 1.999 2.154 2.86v-3.853c0-3.435-1.735-4.763-2.633-5.637-2.094-2.034-3.482-3.375-4.62-4.5-2.13-2.142-2.704-4.069-2.704-4.069ZM18.2 42.152c-2.082-2.047-3.482-3.375-4.607-4.5-2.142-2.142-2.705-3.59-2.705-3.59v3.004c0 3.327 1.508 5.445 2.274 6.319l5.517 5.397c1.544 1.508 1.807 2.226 2.154 3.076v-4.07c0-3.434-1.747-4.763-2.633-5.636Z" fill="#fff"/><path d="M29.187 9.29c-.383 0-.766.012-1.15.024v1.628c.384-.024.755-.024 1.15-.024 12.314 0 22.295 9.98 22.295 22.307 0 12.315-9.98 22.296-22.295 22.296-12.315 0-22.308-9.981-22.308-22.296 0-6.833 3.076-12.949 7.923-17.042v-2.082c-5.805 4.368-9.55 11.31-9.55 19.124 0 13.212 10.71 23.923 23.935 23.923 13.212 0 23.923-10.71 23.923-23.923 0-13.212-10.711-23.935-23.923-23.935Z" fill="#fff"/><path d="M46.109 45.72c.37-.503.718-1.03 1.053-1.569v-3.207h-1.053v4.775Zm3.064-5.949c.155-.466.287-.933.406-1.4h-3.47v.85h.526c.922-.024 1.963-.036 2.538.55Zm-23.11-1.519h-.945v9.538h.945v-9.538Z" fill="#fff"/><path d="M22.952 36.42h3.111c.802 0 1.364.168 1.688.479.323.311.478.874.478 1.676v8.915c0 .802-.155 1.365-.479 1.676-.49.49-1.4.49-2.154.49-.167-.011-.335-.011-.478-.011v4.224c.31.06.622.12.945.168v-3.47c1.436 0 2.37-.492 2.813-1.473v5.17h.31c.192 0 .396 0 .587-.012V38.73c0-.826.168-1.4.479-1.723.311-.323.873-.49 1.663-.49.802 0 1.987-.12 2.597.49.311.323.455.91.455 1.723v4.572h-2.13v-4.883h-.922v15.666c.311-.036.61-.084.922-.144v-9.718h2.13v9.227c.443-.12.874-.263 1.305-.419v-8.449c0-.957.227-1.675 1.196-1.998l-1.077-5.876h2.154l.36 6.414h.263l.359-6.414H41.8l-1.22 5.876c1.017.359 1.22.981 1.22 1.998v5.457a20.04 20.04 0 0 0 1.808-1.531v-11.86h6.319c.047-.287.083-.563.12-.862h-14.77l.204 1.065c-.467-.861-1.353-1.292-2.657-1.292h-.922c-1.567 0-2.513.622-2.884 1.867-.335-1.305-1.328-1.951-2.968-1.951h-4.045v17.508c.311.108.622.216.934.312V36.42h.012Zm19.614 6.738-1.017-.97 1.017-5.265v6.235Z" fill="#fff"/><path d="M38.557 52.062c.323-.167.646-.335.97-.514V44.33h-.97v7.731Z" fill="#fff"/></svg>