<svg width="240" height="60" fill="none" xmlns="http://www.w3.org/2000/svg"><path d="m108.6 23.4 4.56-3.36H98.04v19.92h15.12V36.6h-10.8v-5.04h9.12V28.2h-9.12v-4.8h6.24Zm-18.84 0 4.56-3.36H77.04v19.92h9c5.04 0 7.92-2.28 7.92-6.24 0-3.84-2.64-5.88-7.44-5.88h-5.28V23.4h8.52Zm-3.84 7.68c2.76 0 3.96.96 3.96 2.76 0 1.8-1.32 2.76-3.96 2.76h-4.56v-5.52h4.56Zm39.36-11.04h-8.16v19.92h4.32v-5.64h3.96c5.28 0 8.52-2.76 8.52-7.2s-3.36-7.08-8.64-7.08Zm0 10.92h-3.84v-7.68h3.84c2.76 0 4.32 1.32 4.32 3.84-.12 2.52-1.56 3.84-4.32 3.84Zm-55.56 4.68c-1.2.6-2.4.96-3.72.96-3.84 0-6.72-2.76-6.72-6.6s2.76-6.6 6.72-6.6c1.44 0 2.76.48 3.96 1.2l3.12-2.28-.24-.24c-1.8-1.56-4.2-2.4-6.96-2.4-3 0-5.64.96-7.68 2.88-1.92 1.92-3.12 4.56-3 7.32 0 2.76 1.08 5.4 3 7.44 2.04 1.92 4.8 3 7.56 2.88 3.12 0 5.76-1.08 7.68-3l-2.76-2.04-.96.48ZM199.2 28.2h-9.24v-8.16h-4.32v19.92h4.32V31.8h9.24v8.16h4.32V20.04h-4.32v8.16Zm-29.16-8.16-8.64 19.92h4.32L167.4 36h9.12l1.68 3.96h4.56l-8.4-19.92h-4.32Zm-1.2 12.6 3.36-8.04 3.12 8.04h-6.48Zm50.28-3 7.8-9.6H222l-6.48 8.52h-2.4v-8.52h-4.32v19.92h4.32v-8.04h2.76l6.6 8.04H228l-8.88-10.32Zm-66.72-1.8h-5.28V23.4h11.28v-3.36h-15.6v19.92h9c5.04 0 7.92-2.28 7.92-6.24.12-3.84-2.52-5.88-7.32-5.88Zm-.72 8.88h-4.56V31.2h4.56c2.76 0 3.96.96 3.96 2.76.12 1.8-1.32 2.76-3.96 2.76ZM41.377 19.657a16.716 16.716 0 0 1 1.965 3.305l-14.938 11.16-6.244-3.966v-4.772l6.244 3.967 12.973-9.694Z" fill="#21A038"/><path d="M15.789 29.82c0-.215.005-.428.015-.64l-3.783-.187a16.77 16.77 0 0 0 1.226 7.189 16.59 16.59 0 0 0 3.557 5.387l2.683-2.718a12.746 12.746 0 0 1-2.738-4.142 12.882 12.882 0 0 1-.96-4.89Z" fill="url(#a)"/><path d="M28.4 17.039c.212 0 .421.008.63.018l.19-3.836a16.166 16.166 0 0 0-7.096 1.242 16.342 16.342 0 0 0-5.32 3.606l2.683 2.72a12.557 12.557 0 0 1 4.088-2.777c1.53-.643 3.17-.974 4.825-.973Z" fill="url(#b)"/><path d="M28.4 42.601c-.21 0-.42 0-.63-.017l-.19 3.835a16.156 16.156 0 0 0 7.095-1.241 16.333 16.333 0 0 0 5.316-3.606l-2.679-2.72a12.564 12.564 0 0 1-4.087 2.776 12.43 12.43 0 0 1-4.825.973Z" fill="url(#c)"/><path d="m35.51 19.27 3.188-2.383A16.191 16.191 0 0 0 28.395 13.2v3.839c2.54-.004 5.02.774 7.114 2.23Z" fill="url(#d)"/><path d="M44.8 29.82a16.931 16.931 0 0 0-.258-2.978l-3.53 2.636v.342c0 1.786-.368 3.552-1.084 5.184a12.744 12.744 0 0 1-3.07 4.289l2.546 2.852a16.57 16.57 0 0 0 3.99-5.582 16.765 16.765 0 0 0 1.405-6.743Z" fill="#21A038"/><path d="M28.4 42.602a12.44 12.44 0 0 1-5.115-1.1 12.594 12.594 0 0 1-4.233-3.11L16.24 40.97a16.364 16.364 0 0 0 5.506 4.045A16.17 16.17 0 0 0 28.4 46.44v-3.838Z" fill="url(#e)"/><path d="m19.943 20.347-2.545-2.852a16.57 16.57 0 0 0-3.991 5.581A16.764 16.764 0 0 0 12 29.82h3.789a12.887 12.887 0 0 1 1.084-5.184 12.743 12.743 0 0 1 3.07-4.289Z" fill="url(#f)"/><defs><linearGradient id="a" x1="17.57" y1="41.09" x2="13.331" y2="28.999" gradientUnits="userSpaceOnUse"><stop offset=".14" stop-color="#F1E813"/><stop offset=".3" stop-color="#E6E418"/><stop offset=".58" stop-color="#C9DA26"/><stop offset=".89" stop-color="#A2CC39"/></linearGradient><linearGradient id="b" x1="17.885" y1="18.747" x2="28.583" y2="14.725" gradientUnits="userSpaceOnUse"><stop offset=".06" stop-color="#0FA7DF"/><stop offset=".54" stop-color="#0098F8"/><stop offset=".92" stop-color="#0290EA"/></linearGradient><linearGradient id="c" x1="27.33" y1="44.123" x2="39.402" y2="41.432" gradientUnits="userSpaceOnUse"><stop offset=".12" stop-color="#A2CC39"/><stop offset=".28" stop-color="#86C239"/><stop offset=".87" stop-color="#219F38"/></linearGradient><linearGradient id="d" x1="27.607" y1="14.486" x2="37.938" y2="17.632" gradientUnits="userSpaceOnUse"><stop offset=".06" stop-color="#0290EA"/><stop offset=".79" stop-color="#0C89CA"/></linearGradient><linearGradient id="e" x1="17.19" y1="40.503" x2="28.446" y2="44.654" gradientUnits="userSpaceOnUse"><stop offset=".13" stop-color="#F1E813"/><stop offset=".3" stop-color="#EAE616"/><stop offset=".53" stop-color="#D8DF1F"/><stop offset=".8" stop-color="#BAD52D"/><stop offset=".98" stop-color="#A2CC39"/></linearGradient><linearGradient id="f" x1="13.412" y1="30.284" x2="18.021" y2="18.453" gradientUnits="userSpaceOnUse"><stop offset=".07" stop-color="#A2CC39"/><stop offset=".26" stop-color="#81C45E"/><stop offset=".92" stop-color="#0FA7DF"/></linearGradient></defs></svg>