<svg width="240" height="60" fill="none" xmlns="http://www.w3.org/2000/svg"><path d="M94.8 11.676H66.18L68.256 6H96.84l-2.04 5.676Zm-1.02 2.82H65.16l-2.064 5.664H91.68l2.1-5.664Zm-3.096 8.46H62.076L60 28.62h28.56l2.124-5.664Z" fill="#009FDF"/><path d="M162.876 42.78H168a4.433 4.433 0 0 0 3.936-1.536 4.8 4.8 0 0 0 .996-3.24 4.547 4.547 0 0 0-1.776-3.876 5.147 5.147 0 0 0-3.24-.816h-5.1v9.456l.06.012Zm-6.756 5.7V14.496h22.116l-1.956 5.7h-13.404v7.524h5.46c4.416 0 6.696 1.056 8.28 2.4a10.064 10.064 0 0 1 3.36 8.076 9.783 9.783 0 0 1-3.996 8.4c-2.136 1.476-4.356 1.896-8.88 1.896l-10.98-.012Zm-19.596 0V20.196h-9.84v-5.7h27.3l-1.956 5.7h-8.7v28.32h-6.816l.012-.036Zm-27.24-20.4h3.876a7.644 7.644 0 0 0 2.4-.18 3.744 3.744 0 0 0 2.58-3.876 3.433 3.433 0 0 0-2.58-3.78 9.294 9.294 0 0 0-2.58-.24h-3.6v8.076h-.096Zm0 5.88v8.916H114a5.053 5.053 0 0 0 3.6-.996 4.43 4.43 0 0 0 1.452-3.48 4.803 4.803 0 0 0-.9-2.916c-.996-1.296-2.256-1.536-4.356-1.536h-4.5l-.012.012Zm10.896-3.6v.12a11.998 11.998 0 0 1 3.192 1.92 7.992 7.992 0 0 1 2.88 6.66c0 4.656-2.46 8.016-6.516 9-1.62.4-3.289.562-4.956.48h-12.24V14.496h10.896a19.94 19.94 0 0 1 5.16.48c3.936 1.056 6.516 3.78 6.516 8.076a7.522 7.522 0 0 1-.512 2.982 7.532 7.532 0 0 1-1.648 2.538 8.078 8.078 0 0 1-2.676 1.8h-.096v-.012Z" fill="#0A2973"/></svg>