<svg width="40" height="50" fill="none" xmlns="http://www.w3.org/2000/svg"><g filter="url(#a)"><path d="M40 20c0 16.046-20 30-20 30S0 36.046 0 20C0 8.954 8.954 0 20 0s20 8.954 20 20Z" fill="url(#b)"/></g><g clip-path="url(#c)"><path d="m26.983 12.883-3.65-1.216a3.333 3.333 0 1 1-6.666 0l-3.65 1.216a1.667 1.667 0 0 0-1.117 1.859l.483 2.891a.834.834 0 0 0 .825.7H15v8.334c0 .916.75 1.666 1.667 1.666h6.666A1.667 1.667 0 0 0 25 26.667v-8.334h1.792a.833.833 0 0 0 .825-.7l.483-2.891a1.666 1.666 0 0 0-1.117-1.859v0Z" stroke="#fff" stroke-width="2" stroke-linecap="round" stroke-linejoin="round"/></g><defs><linearGradient id="b" x1="20" y1="0" x2="20" y2="50" gradientUnits="userSpaceOnUse"><stop stop-color="#409FFF"/><stop offset="1" stop-color="#007FFF"/></linearGradient><clipPath id="c"><path fill="#fff" transform="translate(10 10)" d="M0 0h20v20H0z"/></clipPath><filter id="a" x="0" y="0" width="40" height="50" filterUnits="userSpaceOnUse" color-interpolation-filters="sRGB"><feFlood flood-opacity="0" result="BackgroundImageFix"/><feBlend in="SourceGraphic" in2="BackgroundImageFix" result="shape"/><feColorMatrix in="SourceAlpha" values="0 0 0 0 0 0 0 0 0 0 0 0 0 0 0 0 0 0 127 0" result="hardAlpha"/><feOffset dy="2"/><feComposite in2="hardAlpha" operator="arithmetic" k2="-1" k3="1"/><feColorMatrix values="0 0 0 0 1 0 0 0 0 1 0 0 0 0 1 0 0 0 0.25 0"/><feBlend in2="shape" result="effect1_innerShadow_1_201"/></filter></defs></svg>