<svg width="40" height="50" fill="none" xmlns="http://www.w3.org/2000/svg"><g filter="url(#a)"><path d="M40 20c0 16.046-20 30-20 30S0 36.046 0 20C0 8.954 8.954 0 20 0s20 8.954 20 20Z" fill="url(#b)"/></g><path d="M17.5 28.333V20h5v8.333M12.5 17.5l7.5-5.833 7.5 5.833v9.167a1.667 1.667 0 0 1-1.667 1.666H14.167a1.667 1.667 0 0 1-1.667-1.666V17.5Z" stroke="#fff" stroke-width="2" stroke-linecap="round" stroke-linejoin="round"/><defs><linearGradient id="b" x1="20" y1="0" x2="20" y2="50" gradientUnits="userSpaceOnUse"><stop stop-color="#409FFF"/><stop offset="1" stop-color="#007FFF"/></linearGradient><filter id="a" x="0" y="0" width="40" height="50" filterUnits="userSpaceOnUse" color-interpolation-filters="sRGB"><feFlood flood-opacity="0" result="BackgroundImageFix"/><feBlend in="SourceGraphic" in2="BackgroundImageFix" result="shape"/><feColorMatrix in="SourceAlpha" values="0 0 0 0 0 0 0 0 0 0 0 0 0 0 0 0 0 0 127 0" result="hardAlpha"/><feOffset dy="2"/><feComposite in2="hardAlpha" operator="arithmetic" k2="-1" k3="1"/><feColorMatrix values="0 0 0 0 1 0 0 0 0 1 0 0 0 0 1 0 0 0 0.25 0"/><feBlend in2="shape" result="effect1_innerShadow_1_183"/></filter></defs></svg>