<svg width="40" height="50" fill="none" xmlns="http://www.w3.org/2000/svg"><g filter="url(#a)"><path d="M40 20c0 16.046-20 30-20 30S0 36.046 0 20C0 8.954 8.954 0 20 0s20 8.954 20 20Z" fill="url(#b)"/></g><g clip-path="url(#c)"><path d="M16.667 21.667s1.25 1.666 3.333 1.666 3.333-1.666 3.333-1.666M17.5 17.5h.008m4.992 0h.008m5.825 2.5a8.333 8.333 0 1 1-16.666 0 8.333 8.333 0 0 1 16.666 0Z" stroke="#fff" stroke-width="2" stroke-linecap="round" stroke-linejoin="round"/></g><defs><linearGradient id="b" x1="20" y1="0" x2="20" y2="50" gradientUnits="userSpaceOnUse"><stop stop-color="#409FFF"/><stop offset="1" stop-color="#007FFF"/></linearGradient><clipPath id="c"><path fill="#fff" transform="translate(10 10)" d="M0 0h20v20H0z"/></clipPath><filter id="a" x="0" y="0" width="40" height="50" filterUnits="userSpaceOnUse" color-interpolation-filters="sRGB"><feFlood flood-opacity="0" result="BackgroundImageFix"/><feBlend in="SourceGraphic" in2="BackgroundImageFix" result="shape"/><feColorMatrix in="SourceAlpha" values="0 0 0 0 0 0 0 0 0 0 0 0 0 0 0 0 0 0 127 0" result="hardAlpha"/><feOffset dy="2"/><feComposite in2="hardAlpha" operator="arithmetic" k2="-1" k3="1"/><feColorMatrix values="0 0 0 0 1 0 0 0 0 1 0 0 0 0 1 0 0 0 0.25 0"/><feBlend in2="shape" result="effect1_innerShadow_1_189"/></filter></defs></svg>